<svg width="27" height="28" viewBox="0 0 27 28" fill="none" xmlns="http://www.w3.org/2000/svg">
<path d="M12.5871 1.04099C12.94 0.252034 14.06 0.252034 14.4129 1.04099L17.5407 8.03435C17.6784 8.3423 17.9622 8.56005 18.2953 8.61346L25.4409 9.75919C26.2304 9.88579 26.5594 10.8419 26.015 11.4275L20.7254 17.1169C20.5169 17.3412 20.4226 17.6488 20.4697 17.9514L21.7012 25.8748C21.8304 26.7057 20.9386 27.3153 20.2113 26.8933L14.0018 23.2911C13.6915 23.1111 13.3085 23.1111 12.9982 23.2911L6.78872 26.8933C6.06135 27.3153 5.16963 26.7057 5.29879 25.8748L6.53035 17.9514C6.57739 17.6488 6.48314 17.3412 6.27459 17.1169L0.985024 11.4275C0.440573 10.8419 0.769564 9.88579 1.55908 9.75919L8.70475 8.61346C9.03784 8.56005 9.32155 8.3423 9.45929 8.03435L12.5871 1.04099Z" fill="#FFC700"/>
</svg>
